P3
50 50
255
255 255 255
255 255 255
255 255 255
255 255 255
255 255 255
255 255 255
255 255 255
255 255 255
255 255 255
255 255 255
255 255 255
255 255 255
255 255 255
255 255 255
255 255 255
255 255 255
255 255 255
255 255 255
255 255 255
255 255 255
255 255 255
254 254 255
254 254 254
255 255 255
255 255 255
255 255 255
255 255 255
255 255 255
255 255 255
255 255 255
255 255 255
255 255 255
255 255 255
255 255 255
255 255 255
255 255 255
255 255 255
255 255 255
255 255 255
255 255 255
255 255 255
255 255 255
255 255 255
255 255 255
255 255 255
255 255 255
255 255 255
255 255 255
255 255 255
255 255 255
255 255 255
255 255 255
255 255 255
255 255 255
255 255 255
255 255 255
255 255 255
255 255 255
255 255 255
255 255 255
255 255 255
255 255 255
255 255 255
255 255 255
255 255 255
254 254 254
253 255 254
254 254 252
254 254 254
255 255 255
255 255 255
225 229 214
229 222 230
255 253 254
252 254 253
255 255 255
255 255 255
255 255 255
255 255 255
255 255 255
255 255 255
255 255 255
255 255 255
255 255 255
255 255 255
255 255 255
255 255 255
255 255 255
255 255 255
255 255 255
255 255 255
255 255 255
255 255 255
255 255 255
255 255 255
255 255 255
255 255 255
255 255 255
255 255 255
255 255 255
255 255 255
255 255 255
255 255 255
255 255 255
255 255 255
255 255 255
255 255 255
255 255 255
255 255 255
255 255 255
255 255 255
255 255 255
255 255 255
255 255 255
250 250 248
181 177 168
158 37 46
135 73 74
181 177 166
254 254 255
253 253 253
170 68 170
173 124 109
231 197 136
192 183 178
252 252 252
254 254 254
255 255 255
255 255 255
255 255 255
255 255 255
254 254 254
254 252 253
255 255 255
255 255 255
255 255 255
255 255 255
255 255 255
255 255 255
255 255 255
255 255 255
255 255 255
255 255 255
255 255 255
255 255 255
255 255 255
255 255 255
255 255 255
255 255 255
255 255 255
255 255 255
255 255 255
255 255 255
255 255 255
255 255 255
255 255 255
255 255 255
255 255 255
255 255 255
255 255 255
255 255 255
255 255 255
255 255 255
255 253 254
121 31 23
142 29 31
196 164 167
111 20 19
97 75 61
224 85 82
133 107 92
106 58 100
212 186 93
144 128 76
110 78 79
54 38 51
252 252 254
255 255 255
255 255 255
255 255 255
250 254 253
214 134 185
223 118 175
255 255 255
255 255 255
255 255 255
255 255 255
255 255 255
255 255 255
255 255 255
255 255 255
255 255 255
255 255 255
255 255 255
255 255 255
255 255 255
255 255 255
255 255 255
255 255 255
255 255 255
255 255 255
255 255 255
255 255 255
255 255 255
255 255 255
255 255 255
255 255 255
255 255 255
255 255 255
255 255 255
255 255 255
255 255 255
253 253 253
77 28 23
102 60 46
119 34 37
255 220 214
221 39 26
143 37 41
255 249 248
146 107 66
89 59 83
69 93 67
91 54 95
115 139 113
188 177 171
224 234 210
255 255 255
255 255 255
94 123 101
55 105 56
140 148 133
255 139 203
255 233 243
255 255 255
255 255 255
255 255 255
255 255 255
255 255 255
255 255 255
255 255 255
255 255 255
255 255 255
255 255 255
255 255 255
255 255 255
255 255 255
255 255 255
255 255 255
255 255 255
255 255 255
255 255 255
255 255 255
255 255 255
255 255 255
255 255 255
255 255 255
255 255 255
255 255 255
255 255 255
255 255 255
254 254 254
174 107 124
79 35 34
255 255 251
78 27 26
199 186 177
233 209 207
184 45 50
132 53 49
151 114 105
37 40 33
36 47 39
139 159 134
180 174 100
132 173 115
117 71 55
255 255 253
187 166 173
43 98 58
44 103 57
74 139 83
197 196 201
86 134 94
254 252 255
255 255 255
255 255 255
255 255 255
255 255 255
255 255 255
255 255 255
255 255 255
255 255 255
255 255 255
255 255 255
255 255 255
255 255 255
255 255 255
255 255 255
255 255 255
255 255 255
255 255 255
255 255 255
255 255 255
255 255 255
255 255 255
255 255 255
255 255 255
255 255 255
255 255 255
255 255 255
254 253 251
167 146 187
144 41 42
66 26 34
98 79 75
136 73 58
255 251 246
150 45 50
127 19 19
78 56 35
21 11 10
16 14 1
156 203 157
127 146 101
207 176 111
116 79 52
255 253 255
151 193 147
44 95 54
225 223 236
68 160 87
74 121 79
82 128 91
112 141 110
255 254 255
255 255 255
255 255 255
255 255 255
255 255 255
255 255 255
255 255 255
255 255 255
255 255 255
255 255 255
255 255 255
255 255 255
255 255 255
255 255 255
255 255 255
255 255 255
255 255 255
255 255 255
255 255 255
255 255 255
255 255 255
255 255 255
255 255 255
255 255 255
255 255 255
255 255 255
221 227 239
202 221 227
245 235 236
94 28 16
55 29 30
125 21 20
106 8 9
222 8 0
157 0 0
125 23 18
8 13 6
193 116 88
255 159 128
155 175 147
186 215 171
96 53 44
150 178 138
38 99 42
238 244 240
245 244 255
58 135 65
56 131 66
80 135 80
160 170 182
228 183 188
250 255 249
255 254 255
254 254 254
255 255 255
255 255 255
255 255 255
255 255 255
255 255 255
255 255 255
255 255 255
255 255 255
255 255 255
255 255 255
255 255 255
255 255 255
255 255 255
255 255 255
255 255 255
255 255 255
255 255 255
255 255 255
255 255 255
255 255 255
255 255 255
254 254 254
218 227 232
91 149 195
166 155 153
202 65 47
93 4 6
157 0 5
115 0 0
249 0 3
151 3 0
158 35 40
209 169 170
255 94 9
255 104 31
251 137 41
150 109 81
55 55 47
98 160 74
37 82 43
44 103 45
30 113 41
10 111 17
11 64 22
26 80 31
126 151 122
248 198 207
69 100 94
65 104 86
251 250 248
255 255 255
255 255 255
255 255 255
255 255 255
255 255 255
255 255 255
255 255 255
255 255 255
255 255 255
255 255 255
255 255 255
255 255 255
255 255 255
255 255 255
255 255 255
255 255 255
255 255 255
255 255 255
255 255 255
255 255 255
255 255 255
254 254 254
173 184 204
103 182 251
164 80 70
225 14 3
223 0 3
196 7 3
192 164 150
240 210 208
177 3 4
140 62 49
223 113 28
250 129 0
121 57 19
180 111 70
252 75 31
251 126 59
38 64 19
13 72 14
30 100 27
93 130 96
9 97 10
29 92 35
11 71 11
123 156 129
67 33 47
56 72 72
110 102 79
159 145 74
61 107 79
252 250 255
255 255 255
255 255 255
255 255 255
255 255 255
255 255 255
255 255 255
255 255 255
255 255 255
255 255 255
255 255 255
255 255 255
255 255 255
255 255 255
255 255 255
255 255 255
255 255 255
255 255 255
255 255 255
255 255 255
253 255 254
130 148 196
151 172 201
190 88 65
208 22 1
230 64 52
167 44 39
144 5 0
135 18 8
179 39 22
255 96 2
97 41 52
255 162 36
255 119 36
245 114 34
255 103 5
246 95 14
50 29 12
0 43 0
15 81 19
0 62 4
175 194 174
24 77 35
11 61 10
14 73 19
115 125 73
86 109 83
173 147 90
90 98 59
50 85 79
88 91 82
254 254 254
255 255 255
255 255 255
255 255 255
255 255 255
255 255 255
255 255 255
255 255 255
255 255 255
255 255 255
255 255 255
255 255 255
255 255 255
255 255 255
255 255 255
255 255 255
255 255 255
255 255 255
255 255 255
255 254 252
179 50 19
192 70 46
204 98 82
180 69 58
209 129 78
223 188 106
98 0 0
79 3 5
239 20 1
255 59 1
251 102 20
243 100 0
254 129 97
255 72 0
254 94 0
251 117 88
252 102 5
4 32 9
24 83 17
191 177 194
137 167 155
11 53 15
5 51 12
14 54 4
19 32 12
113 86 31
102 93 62
143 135 73
144 129 90
132 150 138
252 252 250
255 255 255
255 255 255
255 255 255
255 255 255
255 255 255
255 255 255
255 255 255
255 255 255
255 255 255
255 255 255
255 255 255
255 255 255
255 255 255
255 255 255
255 255 255
255 255 255
255 255 255
255 255 255
252 255 255
223 213 142
187 136 73
196 99 90
177 46 16
172 44 31
145 99 37
155 54 36
214 4 5
248 71 4
249 34 16
249 55 0
255 100 7
253 70 0
166 74 33
255 159 7
255 99 77
232 57 0
96 36 36
9 37 0
20 68 16
6 51 12
11 45 10
0 40 8
29 57 9
35 42 0
130 113 25
67 54 38
99 91 68
166 176 168
80 76 65
117 131 96
255 255 255
255 255 255
255 255 255
255 255 255
255 255 255
255 255 255
255 255 255
255 255 255
255 255 255
255 255 255
255 255 255
255 255 255
255 255 255
252 254 251
252 254 253
255 255 255
255 255 255
254 252 253
200 131 124
231 208 138
147 42 20
224 42 3
148 17 0
225 152 145
218 140 66
157 37 21
135 33 21
202 12 0
197 37 21
255 67 3
254 108 9
251 90 0
246 51 0
204 107 74
235 42 25
32 47 42
148 28 12
16 18 4
2 48 1
86 87 79
14 50 12
5 27 6
116 126 117
209 182 65
66 77 35
83 76 21
102 93 50
77 71 59
87 64 32
162 151 129
252 252 252
252 255 255
255 255 253
255 255 255
255 255 255
255 255 255
255 255 255
255 255 255
255 255 255
255 255 255
255 255 255
254 255 255
255 255 253
99 70 56
119 90 86
254 254 252
255 255 255
120 130 129
170 29 1
124 37 9
143 32 12
148 104 43
203 32 6
202 128 125
244 211 134
238 139 118
240 145 141
49 18 16
154 55 36
252 85 7
253 86 16
251 114 34
235 77 4
119 77 63
222 19 2
42 34 31
231 29 9
79 78 74
62 59 66
168 176 163
43 42 40
78 80 58
96 97 81
200 175 48
242 246 231
97 78 48
125 117 78
93 70 54
133 117 84
106 113 95
255 251 253
227 252 255
158 225 231
251 255 255
255 255 253
255 255 255
255 255 255
255 255 255
255 255 255
254 255 255
254 255 255
222 170 172
183 59 67
127 58 79
112 67 88
174 146 142
254 255 255
99 92 82
227 38 18
124 16 13
159 30 1
177 148 78
231 78 2
254 198 185
151 108 40
251 162 148
113 6 14
32 17 22
74 25 18
52 31 26
170 91 74
200 63 8
208 33 12
214 68 11
199 13 0
56 45 43
40 45 39
70 51 44
31 38 31
148 156 143
44 38 50
41 33 22
54 55 50
188 176 64
79 76 35
47 44 39
25 28 19
62 46 30
156 135 92
139 135 88
214 227 233
66 195 201
90 184 194
130 201 197
145 222 216
254 255 255
251 255 255
255 255 255
255 255 255
254 254 254
99 55 54
160 115 118
201 178 98
232 198 137
192 34 31
89 62 55
252 252 254
95 72 38
219 105 81
132 25 15
167 56 26
215 173 99
207 34 4
249 194 163
173 121 63
187 17 0
115 35 28
78 22 25
121 87 88
52 57 61
44 54 64
155 108 90
213 48 20
207 35 0
178 9 2
57 22 20
60 50 75
135 112 45
188 145 51
150 161 153
169 113 52
54 46 25
31 38 31
39 40 45
17 13 14
47 41 27
49 36 19
50 41 32
128 104 66
122 131 102
99 161 150
31 184 189
82 196 188
186 196 198
119 232 236
111 222 242
250 254 253
255 255 255
253 253 253
219 155 172
198 128 120
104 34 45
139 113 56
93 44 47
69 15 15
160 114 62
84 35 56
35 26 17
169 68 48
135 15 14
147 27 3
189 35 0
178 57 12
247 172 117
158 26 1
37 51 52
44 42 45
32 37 43
40 41 46
46 47 51
12 19 25
105 108 113
67 52 49
165 24 7
86 6 0
111 59 12
61 53 50
46 47 42
147 158 162
117 114 105
196 153 85
51 51 49
29 41 29
65 89 76
26 22 11
54 71 52
34 30 21
60 47 28
56 58 53
24 52 56
1 169 169
39 189 190
52 192 205
89 216 222
111 230 238
180 254 255
179 232 224
255 255 255
254 249 253
121 67 67
131 92 97
177 108 111
235 165 167
226 54 66
161 68 86
113 18 26
126 26 34
47 6 4
117 61 34
117 18 0
114 85 43
155 25 23
196 33 2
151 19 6
56 3 0
63 62 68
70 75 79
70 70 78
72 81 90
52 56 65
6 13 19
78 78 86
255 251 245
22 18 19
73 2 6
20 0 3
47 41 45
144 149 143
157 131 34
131 113 109
255 236 121
98 105 111
47 50 43
25 36 38
22 18 15
18 26 11
18 19 13
23 20 3
66 64 23
92 77 58
17 167 165
66 195 200
59 199 212
79 207 216
190 193 182
113 221 233
102 206 217
255 255 255
249 253 252
195 131 148
118 76 78
182 154 71
122 89 110
122 17 24
82 0 2
30 0 2
23 0 0
22 2 1
9 4 0
132 13 7
104 7 1
89 69 32
119 39 32
55 0 10
42 2 0
62 62 62
119 122 127
40 40 50
73 77 89
82 87 81
51 65 74
100 99 94
177 178 170
17 21 24
30 0 0
43 20 2
2 6 7
17 21 20
17 21 20
18 16 21
12 15 22
16 17 21
61 71 70
112 77 39
20 13 7
35 31 22
16 17 11
11 23 9
86 78 57
17 33 30
4 157 163
53 176 191
30 188 189
113 207 217
187 202 199
88 209 218
112 183 175
255 255 255
191 173 163
200 165 109
131 74 80
201 171 117
125 74 81
101 1 9
34 4 4
19 0 1
56 31 1
9 0 0
31 19 21
72 51 50
112 20 7
112 3 0
53 2 1
37 12 15
25 7 3
74 72 73
58 63 67
33 38 42
34 39 42
36 41 44
43 54 60
62 69 77
58 62 74
59 64 68
5 5 5
4 10 10
6 8 7
12 14 13
12 13 17
180 115 49
16 14 17
18 18 16
15 18 27
184 127 60
0 1 0
24 24 16
16 15 11
28 26 14
8 53 59
0 132 147
2 154 157
16 155 162
58 196 199
30 185 189
43 202 206
94 205 216
116 202 201
254 254 255
134 115 117
120 83 90
159 84 89
164 87 95
99 22 30
47 6 12
26 0 4
57 31 8
29 16 0
80 98 98
223 66 73
10 6 7
120 18 3
89 11 9
51 23 22
45 10 14
21 6 3
97 98 100
65 65 65
49 52 57
56 60 72
77 82 88
216 225 222
73 80 86
103 104 99
15 19 22
7 9 4
1 1 1
86 65 36
7 7 7
11 12 16
107 69 20
15 15 17
25 26 21
20 18 21
14 44 42
3 1 2
15 17 16
19 22 11
31 50 44
144 165 158
0 125 122
1 138 144
1 163 176
0 164 184
51 189 200
62 196 208
35 183 193
127 195 196
221 245 245
254 253 255
149 105 102
129 63 73
61 16 19
50 5 0
51 5 7
58 22 0
32 6 19
39 1 22
240 66 59
255 46 32
125 83 85
17 5 5
14 0 0
12 11 9
7 5 6
1 0 5
45 46 48
96 96 96
67 67 79
50 53 68
12 13 18
23 24 29
24 27 32
51 56 52
2 3 5
0 0 4
0 2 7
70 38 15
1 4 23
15 19 20
128 117 72
17 22 18
180 136 65
49 27 4
6 35 39
33 89 42
61 77 76
25 40 43
67 94 89
91 126 122
1 117 117
21 136 141
0 146 152
140 123 141
127 140 148
35 186 197
121 213 226
101 211 226
255 251 255
241 239 242
215 208 198
172 117 136
54 18 18
68 7 14
79 37 21
54 31 23
251 53 54
105 107 119
124 134 143
69 86 93
46 41 45
34 37 44
6 4 9
5 3 4
60 50 51
14 13 18
40 41 46
58 57 62
18 19 23
15 16 18
33 32 30
14 12 13
41 41 39
11 9 10
53 63 88
16 28 66
18 21 14
24 16 3
3 7 19
10 12 11
13 15 14
16 16 8
34 18 0
15 20 23
39 46 28
205 211 199
43 66 56
27 71 44
52 88 84
60 101 97
20 102 100
0 124 128
3 130 137
46 79 150
53 92 193
111 129 201
96 195 200
144 220 220
251 255 254
231 230 226
215 210 207
180 161 147
97 63 62
65 40 36
86 25 20
50 37 44
67 74 80
121 132 138
141 162 167
217 233 248
97 113 128
59 70 88
8 8 16
37 7 9
94 90 87
15 12 33
35 39 50
146 149 156
22 29 39
18 17 13
93 94 89
32 27 31
9 10 14
21 34 51
17 24 43
177 183 173
20 39 95
17 38 93
8 16 27
3 1 4
27 27 25
16 21 15
4 4 2
0 10 0
171 180 189
246 246 254
63 121 62
38 83 44
50 83 74
53 96 89
31 91 91
0 64 108
58 59 41
51 90 169
157 152 120
57 85 169
154 154 178
214 229 222
245 254 253
237 236 234
214 209 205
207 196 194
119 56 64
106 85 56
94 68 41
139 141 140
99 107 110
54 55 60
62 57 64
78 36 50
40 50 60
28 34 50
6 13 23
42 7 5
84 74 73
100 92 89
115 104 102
102 111 118
32 46 57
4 2 3
42 42 32
12 7 14
74 15 1
26 25 39
15 33 81
45 54 97
38 56 92
56 73 91
26 59 78
9 18 35
0 0 2
3 8 2
1 6 2
6 35 5
49 82 51
48 101 57
38 108 35
40 84 35
7 49 27
48 87 84
9 27 77
22 34 94
23 23 113
190 162 141
209 170 91
49 74 131
64 64 118
146 135 117
246 255 250
243 242 240
224 219 216
212 198 197
204 189 186
96 52 51
50 26 24
180 100 99
101 110 117
70 73 80
54 53 61
69 19 31
58 60 72
23 22 36
5 14 29
28 9 5
53 41 43
69 53 63
53 44 109
7 56 149
99 99 111
0 2 14
3 4 9
22 14 12
173 164 107
177 156 75
36 15 20
95 128 169
100 133 164
125 146 147
25 45 80
37 80 135
2 17 12
2 16 17
2 21 19
35 90 61
35 96 39
65 82 74
36 105 40
32 94 27
20 80 20
73 100 95
38 57 87
9 18 83
107 72 156
68 62 132
196 171 151
57 40 120
39 68 138
117 133 185
154 160 194
246 244 245
232 228 227
206 198 195
203 193 192
185 175 173
148 138 136
180 81 76
106 110 121
67 71 72
46 49 56
220 42 28
51 30 39
15 18 27
79 4 9
3 12 29
22 49 79
72 96 134
18 60 136
10 51 130
7 51 138
8 18 27
113 95 71
42 16 19
42 17 10
100 55 13
66 39 10
113 76 70
110 124 150
109 143 153
99 112 128
60 79 111
6 15 20
87 97 99
0 19 18
5 62 9
25 80 23
36 89 35
218 237 217
33 107 30
21 42 35
133 155 143
118 88 60
28 55 126
76 75 141
32 36 107
33 48 143
44 59 152
70 70 144
48 61 116
164 155 160
249 249 249
241 239 240
227 223 222
219 215 212
214 210 209
212 208 207
144 149 155
126 53 44
83 54 59
69 78 85
49 52 61
38 44 58
47 26 33
75 4 8
40 61 106
56 101 156
20 61 123
226 244 255
0 46 116
8 57 136
6 26 77
35 37 32
150 121 87
104 101 92
180 133 113
130 102 81
72 80 69
78 45 36
101 122 149
104 120 145
36 84 124
39 74 130
2 16 42
7 45 24
8 39 8
17 82 14
35 92 39
254 255 251
63 86 60
3 61 3
1 23 2
30 29 24
15 22 68
28 37 112
14 30 128
178 141 61
53 65 151
54 46 131
53 48 106
163 151 137
249 249 249
244 244 244
240 240 240
235 233 234
235 235 235
229 229 227
136 147 143
96 117 120
111 106 128
117 72 69
47 49 61
29 37 50
22 6 19
124 13 22
176 212 228
47 98 153
29 76 128
255 253 255
15 66 123
42 44 95
43 34 29
70 62 59
109 80 82
167 110 93
232 197 113
134 121 131
72 53 49
77 40 31
71 93 117
61 85 97
181 213 210
36 84 148
28 46 60
0 21 12
3 15 3
100 111 79
32 77 34
36 104 31
47 112 48
86 104 78
8 16 1
100 93 87
36 38 86
42 47 103
24 40 125
75 65 152
50 40 49
47 50 127
61 62 126
148 149 141
251 251 251
248 248 248
243 243 243
241 241 241
239 239 239
234 234 234
203 202 200
87 94 102
123 81 91
86 90 101
83 93 105
12 19 29
6 19 25
36 23 40
52 95 148
45 108 161
56 100 149
43 91 157
29 79 148
86 44 48
43 26 36
101 40 39
85 36 22
163 114 107
248 219 127
159 102 72
163 128 122
73 45 31
103 91 77
70 91 136
16 44 66
43 82 149
4 22 26
5 40 10
22 55 26
165 175 174
22 52 24
20 72 6
50 68 46
255 251 206
251 250 222
9 24 67
107 90 21
125 93 42
22 29 107
33 38 119
40 44 133
63 54 107
156 134 76
139 130 149
251 251 251
250 250 250
245 245 245
243 243 243
241 241 241
235 235 235
209 208 206
149 145 144
102 102 112
134 63 69
79 88 97
68 70 82
32 36 45
78 110 159
40 92 142
229 234 240
236 254 254
68 107 162
29 69 141
56 44 56
41 35 39
29 29 29
158 127 63
40 12 9
123 60 45
186 117 101
40 34 46
169 138 74
30 12 0
77 95 109
56 80 118
66 84 120
15 22 30
9 16 8
11 37 10
192 204 182
19 48 4
140 145 125
52 65 58
253 251 210
253 254 214
244 233 205
103 78 11
59 53 39
37 32 86
47 56 133
16 19 98
125 99 82
148 120 99
103 99 124
252 252 252
250 250 250
249 249 249
249 249 249
244 243 248
242 242 242
215 211 210
189 184 180
187 172 165
122 110 110
90 88 102
60 64 67
24 31 50
79 121 163
53 77 147
211 215 227
140 168 179
57 87 159
39 67 140
75 61 50
78 72 82
229 191 116
170 136 49
85 31 7
143 112 117
79 46 55
42 28 17
84 27 0
53 35 11
51 52 72
121 127 125
31 54 95
34 40 64
13 26 17
23 28 22
28 46 34
199 197 174
97 103 59
255 248 216
238 210 170
194 191 172
248 250 213
168 167 149
80 100 99
29 33 78
30 31 95
50 49 115
128 107 62
82 81 113
135 137 162
255 255 255
253 253 253
253 253 253
250 250 250
248 248 250
242 242 244
223 223 223
197 189 187
193 187 189
184 175 178
145 150 146
90 91 96
71 73 85
68 102 147
64 93 153
84 124 185
228 229 231
22 58 144
17 65 127
22 36 83
39 39 47
158 138 88
54 12 0
87 31 44
99 38 17
138 69 27
109 39 29
55 22 17
50 20 10
54 89 127
47 54 80
57 71 80
45 57 71
32 41 48
24 32 34
132 127 89
188 179 146
245 237 198
254 254 218
243 234 205
44 49 52
255 254 215
245 240 211
95 88 59
23 33 43
43 38 78
60 46 99
71 66 96
105 91 126
222 223 228
255 255 255
255 255 255
254 254 254
253 253 253
251 252 254
247 247 249
239 240 242
217 219 218
90 130 191
54 59 114
39 54 109
123 136 189
3 2 36
98 122 166
18 62 133
60 115 156
18 73 140
12 77 131
26 84 132
26 62 148
37 29 26
65 38 31
229 203 116
69 27 29
102 21 17
20 15 11
95 42 26
57 38 32
88 50 39
46 117 183
42 55 64
51 99 135
32 68 116
39 48 45
40 44 43
141 138 95
205 191 142
254 249 219
255 253 224
254 254 242
255 255 240
255 255 231
251 253 216
244 236 199
244 232 194
75 85 112
83 85 106
179 172 179
202 198 199
224 222 223
255 255 255
255 255 255
255 255 255
253 253 253
253 253 251
250 251 253
246 247 249
44 54 90
39 68 162
41 78 159
176 156 131
202 165 74
69 108 187
27 35 48
5 51 139
19 67 149
23 66 135
183 179 170
145 142 153
10 55 148
122 20 8
101 34 17
40 6 0
49 9 1
50 32 32
27 22 28
47 2 7
18 15 8
0 2 14
61 70 51
5 56 103
35 89 127
51 99 161
29 68 107
87 94 87
137 120 90
206 192 145
237 226 172
237 225 175
60 57 26
235 224 170
248 236 178
255 244 192
254 249 209
254 245 216
80 78 100
152 150 155
192 188 189
208 204 205
227 227 227
255 255 255
255 255 255
255 255 255
255 255 255
253 253 253
251 252 254
247 248 250
39 68 98
58 82 144
201 163 54
51 57 45
52 71 103
27 31 58
133 141 164
0 15 54
11 50 143
17 57 144
195 221 248
38 66 150
11 73 146
1 7 39
6 2 3
5 0 10
150 129 72
39 24 17
23 26 35
4 2 16
6 5 10
3 34 62
51 87 123
40 78 114
182 167 144
109 144 163
100 122 136
66 103 111
81 87 77
196 189 143
220 207 155
230 220 171
214 192 151
209 197 155
237 224 172
244 227 171
252 238 191
207 203 166
174 166 164
184 180 181
203 199 200
219 218 216
243 243 243
255 255 255
255 255 255
255 255 255
255 255 255
251 253 252
251 252 254
93 96 105
195 178 134
64 83 139
88 127 196
63 77 116
25 29 54
102 113 145
91 97 109
1 15 50
28 53 109
23 56 125
26 62 140
67 90 132
52 49 66
7 8 26
53 51 72
19 1 0
34 14 15
36 16 18
46 16 14
32 20 0
44 58 84
28 69 113
31 79 119
49 93 132
245 211 124
53 115 154
109 120 138
112 143 135
122 125 96
164 159 127
193 183 130
225 212 168
213 198 133
192 183 150
232 218 171
234 216 166
239 226 182
231 226 186
199 195 192
205 204 202
227 227 225
241 241 241
251 251 251
255 255 255
255 255 255
255 255 255
255 255 255
253 255 252
250 251 255
39 44 73
180 163 109
59 61 109
31 35 62
28 29 49
81 83 108
222 212 125
114 95 62
8 13 51
1 9 32
23 31 116
19 35 110
55 53 137
29 39 101
61 59 98
7 2 34
110 129 159
21 4 10
34 9 5
11 10 15
147 151 160
9 36 63
13 54 100
20 65 107
38 73 111
28 80 127
47 106 150
93 138 169
137 131 99
110 142 155
137 128 85
177 165 127
212 199 155
228 214 167
229 217 169
231 213 165
221 195 136
244 219 165
246 235 205
235 233 234
237 237 235
245 245 245
250 250 250
252 252 252
255 255 255
254 254 254
253 253 253
253 253 253
251 252 254
252 253 255
40 41 61
30 38 57
48 48 74
18 21 64
43 55 113
75 82 100
72 82 109
123 135 175
15 18 33
25 25 53
16 26 97
32 54 104
220 215 131
230 205 113
49 39 74
1 0 44
15 0 21
114 122 141
3 0 0
135 138 145
115 121 133
3 37 72
29 74 116
28 77 117
242 241 193
12 48 96
175 213 236
111 151 176
131 161 169
128 160 173
144 135 96
160 155 125
207 195 147
231 218 173
236 222 173
229 213 164
204 189 148
234 217 165
245 233 211
243 244 239
246 246 244
248 247 245
249 249 247
252 252 252
252 252 252
253 253 253
252 252 254
251 252 254
249 250 252
73 77 89
25 28 37
45 47 60
44 43 61
14 17 72
14 17 68
30 34 59
71 66 88
82 83 103
0 2 17
31 30 36
34 30 91
49 46 91
138 127 144
243 228 137
52 51 91
14 0 15
5 11 27
32 27 68
119 126 136
124 128 140
5 29 65
66 54 30
36 86 121
19 71 110
61 80 97
14 68 114
3 64 118
49 115 147
152 164 188
136 163 174
136 124 84
157 144 112
201 189 141
231 217 170
231 217 170
223 206 162
179 173 125
236 218 172
231 228 221
249 248 244
251 251 249
250 250 248
251 250 248
252 252 250
251 251 253
251 251 253
248 248 248
248 249 251
248 249 251
254 255 255
45 50 56
40 50 59
55 57 114
27 24 53
31 30 61
19 19 57
25 19 31
14 17 36
4 3 0
4 2 52
33 22 91
28 22 84
41 35 69
44 52 98
53 49 66
9 8 65
9 4 36
20 7 33
19 47 110
110 114 125
16 43 73
120 98 49
34 89 130
70 70 62
32 73 103
32 79 121
1 44 79
73 123 158
141 143 129
139 158 173
75 63 63
53 42 20
69 60 27
220 201 158
226 211 168
218 206 180
217 199 159
219 208 188
233 231 219
250 249 245
252 251 249
251 251 249
253 253 251
253 253 251
250 250 252
249 249 251
248 247 252
249 249 251
245 246 248
240 239 244
57 58 63
42 39 60
47 40 58
26 31 71
148 127 70
106 93 51
30 35 65
10 9 15
12 12 12
29 26 71
19 23 68
9 22 66
153 130 62
32 25 69
0 30 94
68 63 86
14 12 51
20 15 71
4 10 26
77 76 92
14 47 82
17 60 103
36 95 137
17 80 123
27 66 109
1 40 69
51 107 124
100 136 160
139 140 134
143 174 169
76 70 58
79 67 51
142 123 90
182 167 128
199 186 152
201 184 140
211 199 183
217 207 195
237 234 225
251 250 246
253 252 250
255 255 253
255 255 253
255 255 255
250 250 252
248 248 250
249 249 249
244 245 247
244 244 246
235 235 237
212 207 211
44 46 59
40 41 61
26 31 50
125 101 65
130 115 60
30 34 59
38 39 43
29 26 45
30 24 72
29 40 86
232 213 147
23 21 71
17 18 75
10 19 76
20 29 132
22 8 44
167 144 68
59 52 70
61 58 77
61 58 75
39 77 114
24 75 118
19 87 132
24 82 120
159 127 66
154 142 94
111 143 154
152 170 180
88 93 89
105 104 86
103 92 72
111 94 66
134 114 77
181 168 136
208 193 174
216 204 190
219 211 200
247 239 236
253 252 248
254 254 252
255 255 255
255 255 255
255 255 255
247 247 249
247 247 249
246 246 248
246 246 248
241 241 243
225 225 225
199 197 198
176 174 175
34 34 44
26 30 41
17 16 14
23 23 35
41 29 51
22 19 40
13 10 31
192 173 114
19 24 80
210 186 98
24 29 95
29 19 88
41 38 95
39 42 119
169 136 85
140 117 86
64 65 85
69 66 87
53 50 69
49 43 57
47 95 133
30 89 129
67 121 147
66 112 146
127 122 93
117 152 154
142 162 171
129 130 124
171 173 162
172 168 159
172 165 149
185 176 161
202 193 176
222 210 196
230 224 212
244 240 231
255 251 248
255 255 253
255 255 253
255 255 255
255 255 255
255 255 255
245 244 249
245 244 249
245 245 247
247 247 249
240 240 242
221 219 220
204 200 201
188 186 187
52 53 55
34 34 42
30 33 42
34 33 64
61 54 26
25 16 43
49 47 60
155 138 69
46 38 61
208 193 136
152 137 140
17 17 67
36 35 66
31 33 81
40 33 67
206 198 152
95 85 110
102 100 121
69 66 85
50 48 62
45 62 69
62 96 131
53 104 135
90 126 150
80 130 153
125 154 168
129 153 163
163 164 158
211 212 206
223 224 218
214 211 202
211 202 193
220 211 204
236 232 223
252 249 242
254 255 250
255 255 251
255 255 255
255 255 255
255 255 255
255 255 255
255 255 255
246 245 250
246 245 250
247 247 249
245 245 247
244 244 246
228 228 230
206 204 205
193 189 190
176 172 173
145 140 136
96 87 78
67 55 65
57 45 55
60 49 66
55 41 66
79 73 99
71 69 91
23 20 73
6 19 64
30 36 70
40 37 80
111 79 80
59 47 111
39 35 68
124 111 141
145 147 160
125 121 135
70 68 81
54 53 69
41 73 96
47 62 91
90 85 65
86 123 132
112 149 175
168 167 163
198 199 193
233 233 235
239 240 235
239 238 234
238 235 230
244 240 237
254 250 247
254 255 250
255 255 255
255 255 255
255 255 255
255 255 255
255 255 255
255 255 255
255 255 255
246 245 250
247 246 251
246 245 250
245 244 249
246 245 250
238 238 240
224 224 226
196 194 195
186 182 183
171 166 163
140 130 128
104 94 102
93 82 98
97 85 105
88 72 99
100 86 83
78 71 87
20 23 66
41 36 100
31 38 84
44 35 82
36 30 92
35 43 92
97 83 119
144 136 160
174 174 184
165 165 173
107 107 117
76 74 87
72 79 89
64 71 81
93 100 106
159 149 157
171 167 164
191 190 188
224 225 220
240 240 238
246 246 244
248 248 246
249 248 246
253 252 248
254 253 248
255 255 253
255 255 255
255 255 255
255 255 255
255 255 255
255 255 255
255 255 255
255 255 255
246 245 250
246 245 250
249 249 251
250 249 254
248 247 252
242 242 244
238 238 240
225 223 226
201 197 198
185 179 183
176 170 170
165 163 168
154 154 162
161 159 170
136 125 142
121 108 117
130 114 88
54 42 106
39 37 86
41 36 58
42 36 82
32 26 62
36 50 89
130 117 134
176 172 186
193 193 201
187 190 197
167 166 172
125 125 133
125 119 129
138 138 140
161 159 160
188 184 183
184 182 183
207 206 204
240 240 242
247 247 247
247 247 245
251 251 249
254 253 251
254 254 252
255 255 251
255 255 255
255 255 255
255 255 255
255 255 255
255 255 255
255 255 255
255 255 255
255 255 255
245 244 250
249 248 253
251 250 255
250 251 253
250 249 254
250 249 254
246 245 250
240 241 245
224 224 226
210 209 214
215 215 217
216 215 220
214 215 219
209 210 215
178 175 182
161 150 166
158 145 163
121 114 132
88 81 112
140 125 106
169 150 92
76 63 116
128 115 125
155 147 162
198 197 203
204 207 214
202 205 212
198 202 205
171 175 178
173 173 175
189 189 191
204 203 201
211 211 211
221 219 220
241 241 241
251 251 251
255 255 255
255 255 255
254 254 254
255 255 255
255 255 255
255 255 255
255 255 255
255 255 255
255 255 255
255 255 255
255 255 255
255 255 255
255 255 255
255 255 255
